<?xml version="1.0" encoding="UTF-8"?>
<!DOCTYPE svg PUBLIC "-//W3C//DTD SVG 1.1//EN" "http://www.w3.org/Graphics/SVG/1.1/DTD/svg11.dtd">
<svg xmlns="http://www.w3.org/2000/svg" version="1.1" width="1200px" height="1161px" style="shape-rendering:geometricPrecision; text-rendering:geometricPrecision; image-rendering:optimizeQuality; fill-rule:evenodd; clip-rule:evenodd" xmlns:xlink="http://www.w3.org/1999/xlink">
<g><path style="opacity:0.997" fill="#000099" d="M 424.5,-0.5 C 432.167,-0.5 439.833,-0.5 447.5,-0.5C 453.303,0.970949 459.303,2.13762 465.5,3C 575.162,4.64153 684.829,5.97487 794.5,7C 824.506,9.41098 848.339,22.5777 866,46.5C 891.175,90.1919 916.841,133.525 943,176.5C 975.287,158.276 1007.45,139.943 1039.5,121.5C 993.905,205.187 947.905,288.687 901.5,372C 801.172,377.143 700.839,381.809 600.5,386C 637.535,364.485 674.535,342.985 711.5,321.5C 678.197,264.217 644.53,207.217 610.5,150.5C 559.167,242.167 507.833,333.833 456.5,425.5C 370.982,379.245 285.982,332.245 201.5,284.5C 244.413,207.005 287.58,129.672 331,52.5C 354.797,21.6886 385.964,4.02193 424.5,-0.5 Z"/></g>
<g><path style="opacity:0.42" fill="#000099" d="M 1039.5,120.5 C 1040.83,121.167 1040.83,121.167 1039.5,120.5 Z"/></g>
<g><path style="opacity:0.997" fill="#000099" d="M 1199.5,627.5 C 1199.5,636.833 1199.5,646.167 1199.5,655.5C 1194.88,684.731 1182.72,710.398 1163,732.5C 1104.67,825.167 1046.33,917.833 988,1010.5C 972,1031.09 951.167,1043.92 925.5,1049C 872.499,1049.41 819.499,1049.24 766.5,1048.5C 765.985,1085.84 765.319,1123.17 764.5,1160.5C 764.167,1160.5 763.833,1160.5 763.5,1160.5C 716.057,1077.79 668.724,994.953 621.5,912C 669.199,823.436 717.032,734.936 765,646.5C 764.33,689.493 763.496,732.493 762.5,775.5C 823.667,776.085 884.834,776.751 946,777.5C 951.5,777.167 957,776.833 962.5,776.5C 910.04,685.748 857.707,594.915 805.5,504C 889.371,455.3 973.371,406.8 1057.5,358.5C 1101.23,432.757 1144.4,507.423 1187,582.5C 1193.15,597.082 1197.31,612.082 1199.5,627.5 Z"/></g>
<g><path style="opacity:0.995" fill="#000099" d="M -0.5,404.5 C -0.5,404.167 -0.5,403.833 -0.5,403.5C 95.4038,403.168 191.237,403.501 287,404.5C 339.302,489.632 391.802,574.632 444.5,659.5C 443.21,660.408 441.877,660.241 440.5,659C 405.333,637.249 370,615.749 334.5,594.5C 301.293,651.749 267.96,708.915 234.5,766C 339.167,766.333 443.833,766.667 548.5,767C 549.499,864.43 549.832,961.93 549.5,1059.5C 462.166,1059.67 374.833,1059.5 287.5,1059C 243.948,1052.72 210.448,1031.22 187,994.5C 178.804,978.774 171.137,962.774 164,946.5C 114.412,853.658 65.0787,760.658 16,667.5C 7.41387,644.81 7.41387,622.144 16,599.5C 42.3806,553.902 68.8806,508.402 95.5,463C 64.0602,442.771 32.0602,423.271 -0.5,404.5 Z"/></g>
</svg>

