<?xml version="1.0" standalone="no"?>
<!DOCTYPE svg PUBLIC "-//W3C//DTD SVG 20010904//EN"
 "http://www.w3.org/TR/2001/REC-SVG-20010904/DTD/svg10.dtd">
<svg version="1.0" xmlns="http://www.w3.org/2000/svg"
 width="1200.000000pt" height="1200.000000pt" viewBox="0 0 1200.000000 1200.000000"
 preserveAspectRatio="xMidYMid meet">

<g transform="translate(0.000000,1200.000000) scale(0.100000,-0.100000)"
fill="#FFFFFF" stroke="none">
<path d="M3867 11880 c-33 -26 -45 -76 -23 -99 15 -14 69 -17 464 -23 420 -6
484 -10 622 -37 162 -33 356 -141 454 -253 25 -29 46 -56 46 -61 0 -4 17 -34
38 -65 21 -31 92 -142 157 -247 64 -104 139 -224 165 -265 26 -41 85 -133 130
-205 45 -71 93 -146 107 -165 13 -19 56 -82 96 -140 86 -127 214 -300 235
-317 11 -9 55 -13 131 -14 64 0 179 -4 256 -9 532 -35 769 -106 1186 -356 79
-47 185 -107 236 -132 107 -53 113 -41 -63 -133 -196 -102 -304 -177 -304
-211 0 -14 45 -9 103 11 31 11 78 23 104 26 l48 7 -89 -91 c-50 -50 -87 -93
-84 -97 9 -9 161 94 258 175 159 133 196 152 330 166 380 38 635 -54 775 -282
58 -94 93 -135 113 -131 8 2 51 75 96 163 45 88 98 189 118 225 20 36 71 135
115 220 44 85 86 166 95 180 9 14 52 95 95 180 44 85 94 180 110 210 17 30 66
125 110 210 44 85 94 180 110 210 17 30 68 127 114 215 45 88 109 210 141 270
54 104 68 145 50 145 -5 0 -249 -144 -542 -320 -293 -177 -540 -319 -549 -318
-23 5 -135 176 -346 528 -259 434 -422 671 -556 812 l-36 38 -2295 0 c-2285 0
-2295 0 -2321 -20z"/>
<path d="M4280 11585 c-69 -12 -196 -43 -245 -60 -135 -47 -305 -128 -395
-188 -186 -124 -365 -297 -419 -404 -19 -37 -45 -84 -56 -103 -12 -19 -39 -69
-60 -110 -22 -41 -49 -91 -60 -110 -12 -19 -39 -69 -60 -110 -22 -41 -49 -91
-60 -110 -12 -19 -50 -89 -84 -155 -35 -66 -66 -124 -71 -130 -4 -5 -24 -44
-46 -85 -21 -41 -48 -91 -59 -110 -12 -19 -39 -69 -60 -110 -22 -41 -49 -91
-60 -110 -12 -19 -50 -89 -84 -155 -35 -66 -66 -124 -71 -130 -4 -5 -24 -44
-46 -85 -21 -41 -48 -91 -59 -110 -12 -19 -47 -83 -77 -142 -49 -93 -54 -109
-44 -129 9 -19 281 -202 335 -226 7 -3 65 -37 128 -75 63 -37 117 -68 120 -68
3 0 17 -8 31 -18 15 -11 56 -35 92 -54 36 -20 94 -52 128 -72 35 -20 66 -36
69 -36 3 0 17 -8 31 -18 15 -10 65 -39 112 -64 47 -25 114 -62 148 -82 35 -20
65 -36 67 -36 2 0 33 -18 69 -40 36 -22 67 -40 70 -40 5 0 418 -248 468 -281
l37 -24 -6 -62 c-6 -59 -5 -63 15 -63 15 0 30 18 58 68 21 37 46 82 56 100 10
18 36 65 58 103 22 39 40 73 40 76 0 3 8 17 18 31 11 15 38 63 62 107 24 44
59 108 77 143 58 106 34 125 -103 81 -98 -32 -124 -35 -124 -16 0 14 128 177
300 380 69 82 142 169 164 195 21 26 61 72 90 103 28 30 92 102 141 159 169
194 200 224 254 243 52 18 77 46 67 74 -9 22 -73 8 -181 -38 -99 -43 -154 -56
-179 -42 -13 7 -4 20 52 75 77 75 227 197 269 218 15 8 55 31 88 51 77 46 266
121 375 149 62 16 128 23 243 27 l157 6 -26 46 c-15 25 -42 75 -61 111 -19 36
-39 70 -43 75 -4 6 -27 46 -51 90 -23 44 -67 120 -96 169 -29 49 -53 90 -53
92 0 4 -178 298 -247 409 -27 44 -74 118 -103 165 -29 47 -84 130 -121 186
-65 97 -70 102 -146 141 -101 53 -265 108 -378 127 -109 19 -348 20 -455 1z"/>
<path d="M6778 9629 c-132 -19 -254 -63 -466 -168 -225 -110 -387 -161 -510
-161 l-82 0 0 -50 c0 -79 17 -90 140 -90 106 0 121 4 390 99 47 17 97 31 112
31 l27 0 -6 -93 c-4 -61 -1 -112 7 -145 26 -112 160 -208 330 -238 154 -27
252 10 379 140 44 44 99 105 121 134 23 29 51 57 63 64 11 6 66 14 122 18 138
10 166 31 151 114 -6 30 -19 42 -114 104 -119 77 -281 172 -295 172 -4 0 -33
11 -63 25 -92 42 -208 59 -306 44z m262 -218 c87 -30 291 -128 290 -141 -1 -6
-165 -130 -174 -130 -3 0 -6 11 -6 25 0 41 -38 129 -75 172 -42 50 -102 76
-175 76 -131 1 -240 -113 -240 -250 0 -120 79 -213 196 -232 l49 -8 -40 -18
c-75 -33 -246 4 -314 68 -71 68 -96 199 -53 283 30 58 102 126 174 163 62 31
65 32 168 28 84 -4 124 -11 200 -36z m-57 -169 c23 -20 22 -67 -3 -92 -41 -41
-110 -13 -110 43 0 40 9 53 40 65 28 10 47 6 73 -16z"/>
<path d="M10315 8756 c-21 -14 -30 -20 -360 -231 -572 -365 -553 -352 -565
-376 -6 -11 -24 -67 -40 -123 -33 -115 -98 -282 -167 -425 -54 -112 -53 -113
-109 47 -20 59 -58 148 -83 197 -78 156 -202 258 -363 300 -111 29 -374 -14
-733 -119 -404 -119 -795 -207 -1090 -247 -91 -12 -107 -18 -103 -37 5 -25 59
-51 109 -53 81 -4 293 33 529 91 153 38 386 104 595 170 50 16 144 42 210 59
66 17 152 40 190 51 102 29 198 27 263 -6 29 -14 53 -33 54 -42 3 -34 -4 -65
-18 -88 -23 -35 -143 -71 -764 -228 -515 -130 -770 -210 -795 -251 -8 -13 2
-28 53 -76 34 -32 79 -66 100 -75 41 -17 51 -16 237 32 50 13 122 30 160 38
39 8 111 24 160 34 50 11 117 22 150 23 l59 4 34 -50 c58 -87 175 -332 261
-548 46 -115 81 -210 78 -213 -14 -14 -67 16 -130 72 -128 116 -202 94 -124
-36 104 -174 252 -507 502 -1131 90 -223 173 -427 184 -452 12 -25 21 -48 21
-51 0 -2 13 -33 29 -68 16 -35 41 -92 57 -128 58 -134 45 -124 170 -132 450
-29 1015 -37 1204 -18 333 34 594 117 790 250 81 55 232 211 300 312 33 47 60
89 60 92 0 3 14 29 32 57 56 92 136 304 170 454 29 127 37 522 14 659 -28 166
-70 292 -130 393 -14 23 -60 102 -102 175 -42 73 -88 150 -101 170 -12 21 -23
40 -23 42 0 2 -28 51 -61 108 -34 56 -70 117 -79 133 -19 34 -168 290 -272
470 -39 66 -79 136 -90 155 -11 19 -46 78 -77 130 -30 52 -65 111 -76 131
-117 208 -157 269 -203 316 -55 55 -80 63 -117 39z"/>
<path d="M6 7942 c9 -8 47 -36 176 -125 56 -39 137 -90 503 -316 276 -170 410
-259 472 -314 l22 -20 -56 -111 c-32 -61 -67 -127 -79 -146 -11 -19 -47 -87
-79 -150 -32 -63 -71 -135 -86 -160 -14 -25 -53 -97 -86 -160 -76 -145 -156
-295 -205 -385 -107 -195 -152 -333 -146 -448 4 -77 28 -135 116 -278 21 -35
50 -84 64 -109 14 -25 67 -117 118 -205 51 -88 100 -173 110 -190 9 -16 59
-102 110 -190 51 -88 104 -180 118 -205 14 -25 36 -62 49 -82 12 -21 23 -40
23 -42 0 -3 31 -57 70 -122 38 -64 70 -118 70 -120 0 -2 18 -33 40 -69 22 -36
40 -67 40 -69 0 -2 28 -51 61 -108 34 -56 71 -119 82 -138 55 -99 587 -991
682 -1145 109 -177 390 -626 474 -760 45 -71 90 -136 99 -143 9 -6 42 -12 74
-12 46 0 58 3 58 16 0 16 -75 142 -160 269 -222 330 -334 552 -389 770 -54
211 -39 426 42 625 19 47 45 110 58 140 29 71 275 564 304 610 12 19 37 64 57
100 19 36 58 103 85 150 28 47 60 102 72 123 12 21 83 142 159 270 206 346
259 439 266 468 3 14 17 43 31 63 33 49 40 86 22 110 -13 18 -18 19 -55 7 -22
-8 -71 -38 -109 -67 -143 -111 -192 -144 -222 -150 -18 -4 -31 -2 -31 4 0 15
43 125 95 242 26 58 51 119 57 135 15 40 306 620 333 665 43 68 125 235 125
252 0 16 -11 18 -90 18 -65 0 -90 3 -90 13 0 21 59 133 165 312 23 39 63 114
89 167 l48 98 -45 82 c-83 155 -200 362 -292 518 -18 30 -63 107 -100 170 -38
63 -75 123 -83 133 -14 16 -104 17 -1631 17 -888 0 -1611 -4 -1605 -8z"/>
<path d="M7939 5773 c-18 -38 -43 -84 -54 -103 -12 -19 -50 -89 -84 -155 -35
-66 -66 -124 -71 -130 -4 -5 -34 -62 -67 -125 -33 -63 -77 -144 -97 -178 -20
-35 -36 -66 -36 -68 0 -2 -10 -21 -23 -42 -13 -20 -46 -80 -74 -132 -28 -52
-67 -124 -87 -158 -20 -35 -36 -66 -36 -68 0 -2 -11 -21 -23 -42 -13 -20 -41
-71 -62 -112 -22 -41 -49 -91 -60 -110 -12 -19 -39 -69 -60 -110 -22 -41 -49
-91 -60 -110 -12 -19 -51 -91 -87 -160 -36 -69 -84 -159 -106 -200 -84 -154
-145 -272 -283 -545 l-142 -280 20 -35 c10 -19 61 -107 112 -195 52 -88 102
-176 113 -195 11 -19 43 -73 71 -120 27 -47 64 -110 80 -140 17 -30 38 -67 49
-82 10 -14 18 -28 18 -31 0 -3 28 -52 61 -109 34 -56 70 -116 79 -133 9 -16
59 -102 110 -190 51 -88 100 -173 110 -190 9 -16 59 -102 110 -190 51 -88 104
-180 118 -205 14 -24 49 -84 78 -133 30 -49 54 -91 54 -93 0 -2 18 -33 40 -69
22 -36 40 -67 40 -69 0 -2 28 -51 61 -108 34 -56 70 -116 79 -133 38 -66 197
-341 211 -362 7 -13 17 -23 21 -23 5 0 8 119 8 263 0 145 3 460 7 700 l6 437
682 0 c440 0 702 4 741 11 128 23 281 127 356 241 19 29 54 89 78 133 23 44
46 85 50 90 4 6 44 82 89 170 46 88 86 165 90 170 5 6 36 64 71 130 34 66 65
125 70 130 4 6 43 80 87 166 45 86 87 167 96 180 8 13 44 81 80 150 36 70 72
138 80 150 8 13 45 83 82 154 37 72 70 135 75 140 4 6 44 82 89 170 46 88 86
165 90 170 5 6 36 64 71 130 34 66 65 125 70 130 4 6 24 44 46 85 21 41 50 95
65 120 14 25 44 79 66 120 59 112 154 284 163 295 4 6 24 44 46 85 21 41 48
91 59 110 12 19 40 69 62 110 22 41 93 166 157 278 64 112 116 206 116 208 0
3 18 32 40 64 22 33 43 66 46 75 8 21 -71 125 -95 125 -14 0 -27 -20 -51 -77
-114 -274 -221 -499 -300 -627 -202 -330 -482 -555 -754 -605 -41 -8 -486 -11
-1433 -11 l-1373 0 0 665 c0 366 -4 665 -9 665 -4 0 -23 -30 -42 -67z"/>
<path d="M5405 4950 c-55 -38 -110 -75 -122 -82 -13 -7 -100 -68 -195 -134
-190 -133 -366 -252 -425 -286 -46 -26 -184 -98 -189 -98 -3 0 53 91 156 255
78 122 154 264 147 272 -4 3 -16 3 -29 0 -38 -10 -297 -187 -513 -352 -106
-80 -388 -265 -447 -292 l-47 -22 15 37 c9 20 49 105 90 187 75 152 85 185 60
185 -24 0 -99 -30 -146 -58 -25 -14 -90 -45 -145 -68 -97 -39 -216 -105 -317
-173 -99 -67 -308 -272 -393 -387 -67 -89 -158 -242 -214 -359 -88 -182 -170
-483 -186 -680 -12 -140 39 -336 140 -539 77 -154 162 -269 312 -419 186 -187
385 -315 626 -402 l98 -35 1234 0 1235 0 0 1700 c0 1614 -1 1699 -17 1693 -31
-12 -178 -89 -221 -117 -23 -14 -44 -26 -47 -26 -2 0 -64 -37 -137 -81 -73
-45 -146 -89 -163 -99 -16 -9 -84 -48 -150 -86 -116 -67 -204 -108 -213 -100
-4 4 151 309 167 331 16 20 151 284 151 295 0 18 -13 11 -115 -60z"/>
</g>
</svg>
